<svg xmlns="http://www.w3.org/2000/svg" viewBox="0 0 600 600">
  <rect width="100%" height="100%" fill="#fbf5ef"/>
  <g transform="translate(120,80)" fill="#b85a3a">
    <path d="M150 0 L210 0 C230 0 260 30 280 80 L320 220 C330 260 350 280 360 320 L360 420 C360 460 320 480 300 480 L210 480 C190 480 150 460 150 420 L150 320 C160 280 180 260 190 220 L230 80 C250 30 280 0 300 0 L150 0 Z" opacity="0.95"/>
    <circle cx="240" cy="40" r="6" fill="#fff"/>
  </g>
  <text x="50%" y="560" font-family="Helvetica, Arial" font-size="26" fill="#6d695f" text-anchor="middle">Vestido Curadoria</text>
</svg>